<svg width="16" height="16" viewBox="0 0 16 16" fill="none" xmlns="http://www.w3.org/2000/svg">
<path d="M5.01111 7.32778C5.81111 8.9 7.1 10.1833 8.67222 10.9889L9.89444 9.76667C10.0444 9.61667 10.2667 9.56667 10.4611 9.63333C11.0833 9.83889 11.7556 9.95 12.4444 9.95C12.75 9.95 13 10.2 13 10.5056V12.4444C13 12.75 12.75 13 12.4444 13C7.22778 13 3 8.77222 3 3.55556C3 3.25 3.25 3 3.55556 3H5.5C5.80556 3 6.05556 3.25 6.05556 3.55556C6.05556 4.25 6.16667 4.91667 6.37222 5.53889C6.43333 5.73333 6.38889 5.95 6.23333 6.10556L5.01111 7.32778Z" fill="white"/>
</svg>
